# xmcd
#
# Track frame offsets: 
#        150
#        9495
#        22972
#        34702
#        44450
#        58580
#        69647
#        83910
#        97350
#        109522
#        120000
#        133092
#        145402
#        159515
#        174205
#
# Disc length: 2484 seconds
#
# Revision: 0
# Processed by: cddbd v1.5.2PL0 Copyright (c) Steve Scherf et al.
# Submitted via: ExactAudioCopy v0.95b4
#
DISCID=c009b20f
DTITLE=Al King - Al King Blues Master
DYEAR=1996
DGENRE=Blues
TTITLE0=On My Way
TTITLE1=Reconsider Baby
TTITLE2=Shimmy and Shake
TTITLE3=Lingerin' Love
TTITLE4=Think Twice Before You Speak
TTITLE5=The Winner
TTITLE6=My Money Ain't Long Enough
TTITLE7=Blue Shadows
TTITLE8=This Thing Called Love
TTITLE9=Everybody Ain't Your Friend
TTITLE10=Christmas Is Gone
TTITLE11=Peace and Understanding
TTITLE12=Don't Put Off For Tomrrow
TTITLE13=Playing On Me
TTITLE14=Get Lost
EXTD=
EXTT0=
EXTT1=
EXTT2=
EXTT3=
EXTT4=
EXTT5=
EXTT6=
EXTT7=
EXTT8=
EXTT9=
EXTT10=
EXTT11=
EXTT12=
EXTT13=
EXTT14=
PLAYORDER=
